HIERARCHY
ROOT Hips
{
	OFFSET 0.00000 0.00000 0.00000
	CHANNELS 6 Xposition Yposition Zposition Zrotation Yrotation Xrotation 
	JOINT RightUpLegDummy
	{
		OFFSET 0 0 0
		CHANNELS 3 Zrotation Yrotation Xrotation
		JOINT RightUpLeg
		{
			OFFSET -3.52197 -3.41223 0.04002
			CHANNELS 3 Zrotation Yrotation Xrotation
			JOINT RightLeg
			{
				OFFSET 0.00006 -17.42390 1.60435
				CHANNELS 3 Zrotation Yrotation Xrotation
				JOINT RightFoot
				{
					OFFSET 0.06153 -16.50078 -1.63901
					CHANNELS 3 Zrotation Yrotation Xrotation
					JOINT RightToes
					{
						OFFSET 0.00298 -1.73825 3.34613
						CHANNELS 3 Zrotation Yrotation Xrotation
						End Site
						{
							OFFSET 0.00480 -0.05416 3.85043
						}
					}
				}
			}
		}
	}
	JOINT SpineDummy
	{
		OFFSET 0 0 0
		CHANNELS 3 Zrotation Yrotation Xrotation
		JOINT Spine
		{
			OFFSET 0.00000 4.68130 0.00000
			CHANNELS 3 Zrotation Yrotation Xrotation
			JOINT Spine1
			{
				OFFSET -0.00000 10.10138 0.05002
				CHANNELS 3 Zrotation Yrotation Xrotation
				JOINT HEadDummy
				{
					OFFSET 0 0 0
					CHANNELS 3 Zrotation Yrotation Xrotation
					JOINT Head
					{
						OFFSET -0.00000 3.43865 0.00438
						CHANNELS 3 Zrotation Yrotation Xrotation
						End Site
						{
							OFFSET -0.11417 5.02924 0.98962
						}
					}
				}
				JOINT LeftShoulder1Dummy
				{
					OFFSET 0 0 0
					CHANNELS 3 Zrotation Yrotation Xrotation
					JOINT LeftShoulder1
					{
						OFFSET 3.53937 -0.14262 -0.08662
						CHANNELS 3 Zrotation Yrotation Xrotation
						JOINT LeftArm
						{
							OFFSET 4.04833 -0.00133 0.12681
							CHANNELS 3 Zrotation Yrotation Xrotation
							JOINT LeftForeArm
							{
								OFFSET 10.33880 -0.01036 -0.55515
								CHANNELS 3 Zrotation Yrotation Xrotation
								JOINT LeftHand
								{
									OFFSET 8.69677 0.07543 0.40060
									CHANNELS 3 Zrotation Yrotation Xrotation
									End Site
									{
										OFFSET 5.28377 -0.21905 0.59205
									}
								}
							}
						}
					}
				}
				JOINT RightShoulderDummy
				{
					OFFSET 0 0 0
					CHANNELS 3 Zrotation Yrotation Xrotation
					JOINT RightShoulder
					{
						OFFSET -3.53937 -0.14262 -0.08660
						CHANNELS 3 Zrotation Yrotation Xrotation
						JOINT RightArm
						{
							OFFSET -4.04833 -0.00133 0.12683
							CHANNELS 3 Zrotation Yrotation Xrotation
							JOINT RightForeArm
							{
								OFFSET -10.37987 -0.01039 -0.55511
								CHANNELS 3 Zrotation Yrotation Xrotation
								JOINT RightHand
								{
									OFFSET -8.67398 0.07538 0.40058
									CHANNELS 3 Zrotation Yrotation Xrotation
									End Site
									{
										OFFSET -5.24810 -0.21916 0.59204
									}
								}
							}
						}
					}
				}
			}
		}
	}
	JOINT LeftUpLegDummy
	{
		OFFSET 0 0 0
		CHANNELS 3 Zrotation Yrotation Xrotation
		JOINT LeftUpLeg
		{
			OFFSET 3.52197 -3.41223 0.04002
			CHANNELS 3 Zrotation Yrotation Xrotation
			JOINT LeftLeg
			{
				OFFSET -0.00012 -17.42399 1.60337
				CHANNELS 3 Zrotation Yrotation Xrotation
				JOINT LeftFoot
				{
					OFFSET -0.09972 -16.50070 -1.63802
					CHANNELS 3 Zrotation Yrotation Xrotation
					JOINT LeftToes
					{
						OFFSET -0.01575 -1.73823 3.34611
						CHANNELS 3 Zrotation Yrotation Xrotation
						End Site
						{
							OFFSET 0.03150 -0.01868 3.85031
						}
					}
				}
			}
		}
	}
}
MOTION
Frames: 8
Frame Time: 0.033333
46.4846 39.7439 76.0699 -177.6390 -27.3127 178.2430 0.0000 0.0000 0.0000 1.9811 -0.8961 1.9105 -1.7528 -3.3265 3.1263 -0.3478 0.0113 -4.4847 0.0000 -0.0000 0.0000 0.0000 0.0000 0.0000 2.1698 0.0169 0.1604 0.4382 -0.1932 2.3339 -0.0000 0.0000 -0.0000 1.1841 -10.7789 -7.7714 -0.0000 0.0000 -0.0000 -34.2870 -2.5509 2.4413 -43.6309 -16.4628 -16.8585 -10.5639 5.0300 51.3369 16.5512 -2.8030 -1.1484 -0.0000 0.0000 -0.0000 34.5040 5.1841 3.5203 38.1795 14.4778 -14.1755 11.7580 -5.4487 33.7959 -6.2464 5.1916 -0.5285 0.0000 0.0000 0.0000 1.7090 2.2346 1.5245 1.7996 8.9986 6.2822 2.7492 -0.0643 -6.7418 0.0000 0.0000 -0.0000
46.4736 39.7439 76.0624 -177.6770 -27.1933 178.2160 0.0000 0.0000 0.0000 1.9280 -0.9349 1.9490 -1.7317 -3.1720 3.1736 -0.3631 0.0124 -4.5380 0.0000 -0.0000 0.0000 0.0000 0.0000 0.0000 2.0228 0.0196 0.2619 0.6435 -0.2233 2.2662 -0.0000 0.0000 -0.0000 1.2934 -10.5873 -7.8941 -0.0000 0.0000 -0.0000 -34.3925 -2.4666 2.4138 -43.5934 -16.6283 -17.0396 -10.4610 5.0251 51.5333 16.3463 -2.9007 -1.1468 -0.0000 0.0000 -0.0000 34.2615 5.1417 3.4819 39.1152 13.4439 -13.9675 11.8177 -5.4964 31.1016 -9.8284 4.2961 -0.7779 0.0000 0.0000 0.0000 1.6440 2.1956 1.6338 1.8466 9.1575 6.2297 2.7585 -0.0649 -6.7491 0.0000 0.0000 -0.0000
46.4626 39.7439 76.0501 -177.7060 -27.1118 178.1910 0.0000 0.0000 0.0000 1.8974 -0.9548 2.0108 -1.7360 -3.0755 3.1849 -0.3553 0.0120 -4.5724 0.0000 -0.0000 0.0000 0.0000 0.0000 0.0000 1.7191 -0.0611 0.4274 1.0756 -0.3769 2.1212 -0.0000 0.0000 -0.0000 1.1843 -10.3566 -8.1197 -0.0000 0.0000 -0.0000 -34.5741 -2.3029 2.3584 -43.5516 -16.8253 -17.2259 -10.3522 5.0202 51.7331 16.0731 -2.9346 -1.1315 -0.0000 0.0000 -0.0000 33.8908 5.0865 3.4274 40.4680 11.8456 -14.2706 11.4649 -5.6600 28.4780 -13.3028 2.4714 -0.8882 0.0000 0.0000 0.0000 1.6125 2.1920 1.7529 1.8448 9.2343 6.1598 2.7147 -0.0620 -6.7922 0.0000 0.0000 -0.0000
46.4574 39.7439 76.0445 -177.6150 -27.1723 178.1680 0.0000 0.0000 0.0000 1.9894 -0.9092 2.0537 -1.7512 -3.1805 3.0981 -0.3253 0.0100 -4.5304 0.0000 -0.0000 0.0000 0.0000 0.0000 0.0000 1.6321 -0.2219 0.5512 1.2902 -0.5799 1.9783 -0.0000 0.0000 -0.0000 1.1557 -10.1610 -8.3831 -0.0000 0.0000 -0.0000 -34.6866 -2.2300 2.3354 -43.5049 -16.8522 -17.1957 -10.3786 5.0240 51.6018 15.9874 -2.8703 -1.1168 -0.0000 0.0000 -0.0000 33.8257 5.0919 3.4240 41.6130 10.2404 -15.9156 10.5928 -4.5649 27.7879 -15.0462 2.3353 -0.9899 0.0000 0.0000 0.0000 1.7089 2.2365 1.7163 1.8374 9.1146 6.2229 2.5774 -0.0532 -6.9299 0.0000 0.0000 -0.0000
46.4448 39.7439 76.0447 -177.4910 -27.2814 178.1390 0.0000 0.0000 0.0000 2.0701 -0.8961 2.0736 -1.7176 -3.2958 3.0387 -0.2994 0.0082 -4.5075 0.0000 -0.0000 0.0000 0.0000 0.0000 0.0000 1.7235 -0.2851 0.6652 1.2155 -0.6313 1.8616 -0.0000 0.0000 -0.0000 1.5807 -10.0085 -8.6852 -0.0000 0.0000 -0.0000 -34.5962 -2.3465 2.3774 -43.5925 -16.8655 -17.0367 -10.4595 5.0314 51.3326 16.1447 -2.7778 -1.1159 -0.0000 0.0000 -0.0000 34.1799 5.1462 3.4765 42.5109 7.4870 -18.1240 9.4134 -0.0592 28.1576 -11.9805 1.6002 -0.7057 0.0000 0.0000 0.0000 1.7836 2.2237 1.6372 1.9069 9.0098 6.3295 2.4492 -0.0450 -7.0819 0.0000 0.0000 -0.0000
46.4167 39.7439 76.0339 -177.5190 -27.3244 178.1290 0.0000 0.0000 0.0000 1.9645 -1.0081 2.1164 -1.6328 -3.2214 3.0884 -0.3107 0.0092 -4.5848 0.0000 -0.0000 0.0000 0.0000 0.0000 0.0000 1.4897 -0.1214 0.8383 1.3935 -0.4831 1.7433 -0.0000 0.0000 -0.0000 2.0036 -10.0350 -9.0865 -0.0000 0.0000 -0.0000 -34.4517 -2.5620 2.4560 -43.8626 -17.0262 -16.8678 -10.5150 5.0354 51.1798 16.2986 -2.7248 -1.1199 -0.0000 0.0000 -0.0000 34.5759 5.1776 3.5239 41.8179 6.8279 -17.6295 9.7401 0.3128 27.0677 -11.2570 1.6667 -0.6701 0.0000 0.0000 0.0000 1.6880 2.1356 1.7481 1.9630 9.0590 6.2213 2.4432 -0.0446 -7.1010 0.0000 0.0000 -0.0000
46.3812 39.7439 76.0046 -177.6560 -27.2892 178.1720 0.0000 0.0000 0.0000 1.7585 -1.1682 2.1846 -1.5429 -3.0227 3.1314 -0.3670 0.0131 -4.6918 0.0000 -0.0000 0.0000 0.0000 0.0000 0.0000 0.9128 0.1119 1.0113 1.9893 -0.3324 1.6270 -0.0000 0.0000 -0.0000 1.8667 -10.1969 -9.5853 -0.0000 0.0000 -0.0000 -34.5391 -2.6956 2.5154 -44.0469 -17.1038 -16.6190 -10.6478 5.0419 50.9141 16.0900 -2.8058 -1.1157 -0.0000 0.0000 -0.0000 34.6442 5.1629 3.5240 41.5522 6.3456 -18.1402 9.5270 0.2017 27.6543 -11.9516 1.4836 -0.6956 0.0000 0.0000 0.0000 1.5397 2.0904 2.0009 1.8894 9.1540 5.9052 2.4982 -0.0481 -7.0216 0.0000 0.0000 -0.0000
46.3433 39.7433 75.9763 -177.6840 -27.2440 178.2770 0.0000 0.0000 0.0000 1.6713 -1.2328 2.1719 -1.4819 -2.9025 3.0820 -0.3992 0.0154 -4.7360 0.0000 -0.0000 0.0000 0.0000 0.0000 0.0000 0.6922 0.1436 1.0906 2.2930 -0.3487 1.5307 -0.0000 0.0000 -0.0000 1.6157 -10.1202 -10.0913 -0.0000 0.0000 -0.0000 -34.7911 -2.6708 2.5212 -43.9614 -16.8483 -16.2790 -10.8959 5.0548 50.3907 15.5634 -3.0410 -1.1079 -0.0000 0.0000 -0.0000 34.4855 5.1442 3.5025 41.6829 6.5538 -19.6385 8.7811 -0.9274 29.9412 -12.8501 1.4736 -0.7479 0.0000 0.0000 0.0000 1.5211 2.1326 2.0767 1.7743 9.1778 5.7118 2.4926 -0.0478 -7.0322 0.0000 0.0000 -0.0000
